# xmcd
#
# Track frame offsets:
#	150
#	10697
#	23137
#	34657
#	47445
#	63412
#	74365
#	87232
#	100222
#	111355
#	123145
#	138007
#	150357
#	162707
#	175050
#	184977
#
# Disc length: 2698 seconds
#
# Revision: 0
# Processed by: cddbd v1.5.2PL0 Copyright (c) Steve Scherf et al.
# Submitted via: EasyCDDAExtractor 16.0.9.1
#
DISCID=c70a8810
DTITLE=Varios - N-033 First Ladies of Soul
DYEAR=1900
DGENRE=Soul
TTITLE0=Tell Mama
TTITLE1=Security
TTITLE2=I'd Rather Go Blind
TTITLE3=Rescue Me
TTITLE4=Soul Of The Man
TTITLE5=I'm A Woman
TTITLE6=My Guy
TTITLE7=Two Lovers
TTITLE8=The One Who Really Loves You
TTITLE9=Dancing In the Street
TTITLE10=I Heard It Through The Grapevine
TTITLE11=Heatwave
TTITLE12=Letter Full Of Tears
TTITLE13=You Broke Your Promise
TTITLE14=Operator
TTITLE15=Suspicious Minds
EXTD=
EXTT0=
EXTT1=
EXTT2=
EXTT3=
EXTT4=
EXTT5=
EXTT6=
EXTT7=
EXTT8=
EXTT9=
EXTT10=
EXTT11=
EXTT12=
EXTT13=
EXTT14=
EXTT15=
PLAYORDER=
